<svg xmlns="http://www.w3.org/2000/svg" viewBox="0 0 1080 1080"><defs><style>.a{fill:#04537d;}.b{fill:#f7f7f7;}</style></defs><rect class="a" width="1080" height="1080"/><path class="a" d="M541,821.79c-153.87,0-275.49-122.66-279.72-270.39C256.55,387.33,385.83,266.05,532,262.21,695.76,257.9,816.71,386.73,820.81,533,825.41,697,693.35,822.48,541,821.79Z"/><path class="b" d="M538.15,559.75c-5.34.33-12.86.36-20.26,1.32-21.28,2.76-41.81,8.37-61.07,18-41.55,20.71-71.75,52.38-91,94.59-1.37,3-1.27,5.12,1.43,7.32,7.59,6.21,14.7,13,22.55,18.89,39.22,29.18,83.1,45.83,132,49.59a245.86,245.86,0,0,0,69.33-4.54c46.36-9.67,86.64-31.3,121.29-63.57,2.8-2.6,3.21-4.75,1.65-8.14-11.34-24.8-26.81-46.67-47.21-64.74C630.83,576.49,588.45,560.53,538.15,559.75Z"/><path class="b" d="M540,329.84c-55,0-100.19,45.1-100.21,100s45.1,100.37,99.45,100.41c55.5,0,100.94-44.9,101-99.88C640.23,375.06,595.16,329.84,540,329.84Z"/></svg>